<svg width="151" height="26" viewBox="0 0 151 26" fill="none" xmlns="http://www.w3.org/2000/svg">
<path d="M31.5469 0L19.6558 0C19.3699 0 19.1831 0.30526 19.3106 0.564861L25.4674 10.8224C25.8925 11.6821 26.7593 12.2247 27.7086 12.2247H39.6641C39.95 12.2247 40.1368 11.9195 40.0093 11.6599L33.7881 1.40237C33.363 0.542684 32.4962 0 31.5469 0Z" fill="currentColor"/>
<path d="M31.5469 25.9487H19.6558C19.3699 25.9487 19.1831 25.6434 19.3106 25.3838L25.4674 15.1263C25.8925 14.2666 26.7593 13.724 27.7086 13.724H39.6641C39.95 13.724 40.1368 14.0292 40.0093 14.2888L33.7881 24.5463C33.363 25.406 32.4962 25.9487 31.5469 25.9487Z" fill="currentColor"/>
<path d="M12.2052 24.5029C12.0027 25.3606 11.2399 26 10.326 26H0.344298C0.123757 26 -0.0408935 25.7924 0.00895473 25.5742L5.43335 1.51998C5.62519 0.650113 6.39255 0 7.3155 0L17.3003 0C17.5208 0 17.6854 0.207545 17.6356 0.425776L12.2067 24.5029H12.2052Z" fill="currentColor"/>
<path d="M54.5809 6.63363L51.975 5.87799V19.9291H72.3881C72.8453 19.9291 73.2822 19.8518 73.6911 19.7067C74.8099 19.3107 75.6993 18.421 76.1019 17.2946C76.1206 17.2426 76.1378 17.1905 76.1549 17.1369C76.2564 16.8119 76.2969 16.4712 76.2969 16.1304V15.7486C76.2969 15.3811 76.247 15.0135 76.1315 14.6649C76.1315 14.6649 76.1315 14.6601 76.13 14.6586C75.9396 14.0875 75.6229 13.5732 75.2156 13.1504C74.7912 12.7103 74.2669 12.3696 73.6802 12.1645L54.5824 6.63205L54.5809 6.63363ZM72.8297 14.6601C73.34 14.8084 73.6911 15.2801 73.6911 15.8165V16.0925C73.6911 16.7567 73.159 17.2946 72.5021 17.2946H54.5824V9.37381L72.8297 14.6601Z" fill="currentColor"/>
<path d="M121.443 13.6445C121.443 13.6445 121.449 13.6429 121.454 13.6413C122.041 13.4347 122.565 13.0955 122.989 12.6554C123.396 12.2326 123.713 11.7183 123.904 11.1472L123.905 11.1409C124.021 10.7923 124.071 10.4263 124.071 10.0572V9.67539C124.071 9.33464 124.028 8.99389 123.927 8.66892C123.91 8.61686 123.893 8.56323 123.876 8.51117C123.473 7.38481 122.584 6.49508 121.465 6.09912C121.056 5.95398 120.619 5.87668 120.162 5.87668H99.7486V19.9278H124.071V17.2933H108.843L121.441 13.6445H121.443ZM116.961 12.2026L102.358 16.4336V8.51275H120.277C120.934 8.51275 121.468 9.05069 121.468 9.71641V9.9909C121.468 10.5273 121.117 10.9989 120.606 11.1472L116.963 12.2026H116.961Z" fill="currentColor"/>
<path d="M151 17.2946V19.9291H126.678V5.87799H129.284V17.2946H151Z" fill="currentColor"/>
<path d="M97.1437 5.87799V8.51248H85.8511V19.9291H83.2452V8.51248H72.8218V5.87799H97.1437Z" fill="currentColor"/>
</svg>
